# xmcd CD database generated by RipIT
#
# Track frame offsets:
# 150
# 18755
# 36560
# 53565
# 70102
# 86900
# 106812
# 122676
# 141585
# 158861
# 177392
# 191327
#
# Disc length: 2950 seconds
#
# Revision: 0
# Processed by: cddbd v1.5.2PL0 Copyright (c) Steve Scherf et al.
# Submitted via: RipIT 3.5.1 www.suwald.com/ripit/ripit.html at Sa 5. Mai 22:06:04 CEST 2007
#
DISCID=a20b840c
DTITLE=Herbert Grönemeyer - 12
DYEAR=2007
DGENRE=Blues
TTITLE0=StÌck vom Himmel
TTITLE1=Kopf Hoch, Tanzen
TTITLE2=Du Bist Die
TTITLE3=Marlene
TTITLE4=FlÌsternde Zeit
TTITLE5=Leb In Meiner Welt
TTITLE6=Ich Versteh
TTITLE7=Ohne Dich
TTITLE8=Spur
TTITLE9=Zieh Deinen Weg
TTITLE10=Zur Nacht
TTITLE11=Liebe Liegt Nicht
EXTD=
EXTT0=
EXTT1=
EXTT2=
EXTT3=
EXTT4=
EXTT5=
EXTT6=
EXTT7=
EXTT8=
EXTT9=
EXTT10=
EXTT11=
PLAYORDER=
